<svg width="841" height="865" viewBox="0 0 841 865" fill="none" xmlns="http://www.w3.org/2000/svg">
<g filter="url(#filter0_f_3_15)">
<path d="M217.044 90.6754C160.641 113.237 91.4169 149.382 86.3214 221.398C80.8243 299.092 146.706 343.495 217.044 372.028C287.382 400.561 379.617 372.028 394.216 420.469C408.815 468.909 244.049 612.134 311.934 706.466C373.376 791.846 479.348 784.71 578.024 748.271C665.182 716.085 728.653 654.708 743.915 577.734C759.177 500.76 743.183 459.568 724.008 387.29C704.375 313.283 686.848 261.212 644.38 208.127C601.912 155.042 555.462 115.227 462.563 90.6754C369.664 66.1234 273.447 68.114 217.044 90.6754Z" fill="#6A51CD" fill-opacity="0.47"/>
<path d="M217.044 90.6754C160.641 113.237 91.4169 149.382 86.3214 221.398C80.8243 299.092 146.706 343.495 217.044 372.028C287.382 400.561 379.617 372.028 394.216 420.469C408.815 468.909 244.049 612.134 311.934 706.466C373.376 791.846 479.348 784.71 578.024 748.271C665.182 716.085 728.653 654.708 743.915 577.734C759.177 500.76 743.183 459.568 724.008 387.29C704.375 313.283 686.848 261.212 644.38 208.127C601.912 155.042 555.462 115.227 462.563 90.6754C369.664 66.1234 273.447 68.114 217.044 90.6754Z" stroke="black"/>
</g>
<defs>
<filter id="filter0_f_3_15" x="-4.5" y="-17.5" width="845" height="882" filterUnits="userSpaceOnUse" color-interpolation-filters="sRGB">
<feFlood flood-opacity="0" result="BackgroundImageFix"/>
<feBlend mode="normal" in="SourceGraphic" in2="BackgroundImageFix" result="shape"/>
<feGaussianBlur stdDeviation="45" result="effect1_foregroundBlur_3_15"/>
</filter>
</defs>
</svg>
