<svg width="680" height="708" viewBox="0 0 680 708" fill="none" xmlns="http://www.w3.org/2000/svg">
<g filter="url(#filter0_f_3_13)">
<path d="M189.283 104.263C146.981 121.192 95.0627 148.314 91.2411 202.352C87.1182 260.649 136.529 293.968 189.283 315.378C242.036 336.788 311.213 315.378 322.162 351.725C333.111 388.073 209.537 495.543 260.45 566.326C306.532 630.391 386.011 625.037 460.018 597.694C525.386 573.543 572.99 527.489 584.436 469.731C595.883 411.973 583.887 381.064 569.506 326.83C554.781 271.298 541.636 232.226 509.785 192.393C477.934 152.56 443.097 122.686 373.422 104.263C303.748 85.8401 231.585 87.3337 189.283 104.263Z" fill="#6A51CD"/>
<path d="M189.283 104.263C146.981 121.192 95.0627 148.314 91.2411 202.352C87.1182 260.649 136.529 293.968 189.283 315.378C242.036 336.788 311.213 315.378 322.162 351.725C333.111 388.073 209.537 495.543 260.45 566.326C306.532 630.391 386.011 625.037 460.018 597.694C525.386 573.543 572.99 527.489 584.436 469.731C595.883 411.973 583.887 381.064 569.506 326.83C554.781 271.298 541.636 232.226 509.785 192.393C477.934 152.56 443.097 122.686 373.422 104.263C303.748 85.8401 231.585 87.3337 189.283 104.263Z" stroke="black"/>
</g>
<defs>
<filter id="filter0_f_3_13" x="0.5" y="0.5" width="679" height="707" filterUnits="userSpaceOnUse" color-interpolation-filters="sRGB">
<feFlood flood-opacity="0" result="BackgroundImageFix"/>
<feBlend mode="normal" in="SourceGraphic" in2="BackgroundImageFix" result="shape"/>
<feGaussianBlur stdDeviation="45" result="effect1_foregroundBlur_3_13"/>
</filter>
</defs>
</svg>
